<svg width="306" height="307" xmlns="http://www.w3.org/2000/svg" xmlns:xlink="http://www.w3.org/1999/xlink" xml:space="preserve"><defs><clipPath id="clip0"><rect x="801" y="283" width="306" height="307"/></clipPath></defs><g clip-path="url(#clip0)" transform="translate(-801 -283)"><path d="M210.375 124.312C210.375 119.031 214.657 114.75 219.938 114.75L239.062 114.75C244.343 114.75 248.625 119.031 248.625 124.312L248.625 143.438C248.625 148.719 244.343 153 239.062 153L219.938 153C214.657 153 210.375 148.719 210.375 143.438L210.375 124.312ZM153 124.312C153 119.031 157.281 114.75 162.562 114.75L181.688 114.75C186.969 114.75 191.25 119.031 191.25 124.312L191.25 143.438C191.25 148.719 186.969 153 181.688 153L162.562 153C157.281 153 153 148.719 153 143.438L153 124.312ZM57.375 181.688C57.375 176.406 61.6563 172.125 66.9375 172.125L86.0625 172.125C91.3437 172.125 95.625 176.406 95.625 181.688L95.625 200.812C95.625 206.093 91.3437 210.375 86.0625 210.375L66.9375 210.375C61.6563 210.375 57.375 206.093 57.375 200.812L57.375 181.688ZM114.75 181.688C114.75 176.406 119.031 172.125 124.312 172.125L143.438 172.125C148.719 172.125 153 176.406 153 181.688L153 200.812C153 206.093 148.719 210.375 143.438 210.375L124.312 210.375C119.031 210.375 114.75 206.093 114.75 200.812L114.75 181.688Z" fill="#FF5656" transform="matrix(1 0 0 1.00327 801 283)"/><path d="M66.9375 0C72.2187-2.1233e-15 76.5 4.28128 76.5 9.5625L76.5 19.125 229.5 19.125 229.5 9.5625C229.5 4.28128 233.782-1.06165e-15 239.062-1.06165e-15 244.343-3.18494e-15 248.625 4.28128 248.625 9.5625L248.625 19.125 267.75 19.125C288.875 19.125 306 36.2501 306 57.375L306 267.75C306 288.875 288.875 306 267.75 306L38.25 306C17.1251 306-4.24661e-15 288.875-4.24661e-15 267.75L0 57.375C-8.4932e-15 36.2501 17.1251 19.125 38.25 19.125L57.375 19.125 57.375 9.5625C57.375 4.28128 61.6563-1.06165e-15 66.9375-1.06165e-15ZM19.125 76.5 19.125 267.75C19.125 278.313 27.6876 286.875 38.25 286.875L267.75 286.875C278.313 286.875 286.875 278.313 286.875 267.75L286.875 76.5 19.125 76.5Z" fill="#FF5656" transform="matrix(1 0 0 1.00327 801 283)"/></g></svg>