<svg width="16" height="16" xmlns="http://www.w3.org/2000/svg" xmlns:xlink="http://www.w3.org/1999/xlink" xml:space="preserve" overflow="hidden"><defs><clipPath id="clip0"><rect x="222" y="625" width="16" height="16"/></clipPath></defs><g clip-path="url(#clip0)" transform="translate(-222 -625)"><path d="M230 625C227.829 625 227.556 625.01 226.703 625.048 225.85 625.088 225.269 625.222 224.76 625.42 224.226 625.621 223.742 625.936 223.343 626.343 222.936 626.743 222.621 627.226 222.42 627.76 222.222 628.268 222.087 628.85 222.048 629.7 222.01 630.555 222 630.827 222 633.001 222 635.173 222.01 635.445 222.048 636.298 222.088 637.15 222.222 637.731 222.42 638.24 222.625 638.766 222.898 639.212 223.343 639.657 223.787 640.102 224.233 640.376 224.759 640.58 225.269 640.778 225.849 640.913 226.701 640.952 227.555 640.99 227.827 641 230 641 232.173 641 232.444 640.99 233.298 640.952 234.149 640.912 234.732 640.778 235.241 640.58 235.775 640.379 236.258 640.064 236.657 639.657 237.102 639.212 237.375 638.766 237.58 638.24 237.777 637.731 237.912 637.15 237.952 636.298 237.99 635.445 238 635.173 238 633 238 630.827 237.99 630.555 237.952 629.701 237.912 628.85 237.777 628.268 237.58 627.76 237.379 627.226 237.064 626.743 236.657 626.343 236.258 625.936 235.774 625.621 235.24 625.42 234.73 625.222 234.148 625.087 233.297 625.048 232.443 625.01 232.172 625 229.998 625L230.001 625ZM229.283 626.442 230.001 626.442C232.137 626.442 232.39 626.449 233.233 626.488 234.013 626.523 234.437 626.654 234.719 626.763 235.092 626.908 235.359 627.082 235.639 627.362 235.919 627.642 236.092 627.908 236.237 628.282 236.347 628.563 236.477 628.987 236.512 629.767 236.551 630.61 236.559 630.863 236.559 632.998 236.559 635.133 236.551 635.387 236.512 636.23 236.477 637.01 236.346 637.433 236.237 637.715 236.109 638.062 235.904 638.376 235.638 638.634 235.358 638.914 235.092 639.087 234.718 639.232 234.438 639.342 234.014 639.472 233.233 639.508 232.39 639.546 232.137 639.555 230.001 639.555 227.865 639.555 227.611 639.546 226.768 639.508 225.988 639.472 225.565 639.342 225.283 639.232 224.936 639.104 224.621 638.9 224.363 638.634 224.097 638.376 223.892 638.062 223.763 637.714 223.654 637.433 223.523 637.009 223.488 636.229 223.45 635.386 223.442 635.133 223.442 632.996 223.442 630.86 223.45 630.608 223.488 629.765 223.524 628.985 223.654 628.561 223.764 628.279 223.909 627.906 224.083 627.639 224.363 627.359 224.643 627.079 224.909 626.906 225.283 626.761 225.565 626.651 225.988 626.521 226.768 626.485 227.506 626.451 227.792 626.441 229.283 626.44L229.283 626.442ZM234.271 627.77C233.741 627.77 233.311 628.2 233.311 628.73 233.311 629.26 233.741 629.69 234.271 629.69 234.801 629.69 235.231 629.26 235.231 628.73 235.231 628.2 234.801 627.77 234.271 627.77ZM230.001 628.892C227.732 628.857 225.864 630.667 225.828 632.936 225.793 635.206 227.604 637.074 229.873 637.109 229.916 637.11 229.958 637.11 230.001 637.109 232.27 637.074 234.081 635.206 234.045 632.936 234.011 630.717 232.22 628.927 230.001 628.892ZM230.001 630.333C231.474 630.333 232.668 631.527 232.668 633 232.668 634.473 231.474 635.667 230.001 635.667 228.528 635.667 227.334 634.473 227.334 633 227.334 631.527 228.528 630.333 230.001 630.333Z" fill="#FF5656"/></g></svg>