<svg width="16" height="16" xmlns="http://www.w3.org/2000/svg" xmlns:xlink="http://www.w3.org/1999/xlink" xml:space="preserve" overflow="hidden"><defs><clipPath id="clip0"><rect x="273" y="630" width="16" height="16"/></clipPath></defs><g clip-path="url(#clip0)" transform="translate(-273 -630)"><path d="M278.026 645C284.064 645 287.367 639.997 287.367 635.666 287.367 635.526 287.367 635.384 287.361 635.244 288.004 634.779 288.559 634.202 289 633.542 288.399 633.807 287.763 633.981 287.111 634.06 287.797 633.65 288.312 633.004 288.558 632.243 287.913 632.625 287.207 632.893 286.471 633.036 285.229 631.713 283.149 631.648 281.826 632.89 280.972 633.692 280.609 634.889 280.875 636.03 278.235 635.898 275.776 634.651 274.108 632.601 273.239 634.102 273.685 636.019 275.126 636.983 274.606 636.965 274.097 636.826 273.64 636.575L273.64 636.62C273.642 638.182 274.742 639.526 276.272 639.838 275.99 639.916 275.699 639.954 275.407 639.953 275.201 639.954 274.995 639.935 274.793 639.896 275.223 641.233 276.456 642.148 277.86 642.173 276.697 643.087 275.259 643.582 273.78 643.58 273.519 643.581 273.259 643.566 273 643.535 274.501 644.492 276.245 645 278.026 645Z" fill="#FF5656"/></g></svg>