<svg width="16" height="16" xmlns="http://www.w3.org/2000/svg" xmlns:xlink="http://www.w3.org/1999/xlink" xml:space="preserve" overflow="hidden"><defs><clipPath id="clip0"><rect x="529" y="78" width="16" height="16"/></clipPath></defs><g clip-path="url(#clip0)" transform="translate(-529 -78)"><path d="M529 82C529 80.8954 529.895 80 531 80L543 80C544.105 80 545 80.8954 545 82L545 90C545 91.1046 544.105 92 543 92L531 92C529.895 92 529 91.1046 529 90L529 82ZM531 81C530.448 81 530 81.4477 530 82L530 82.217 537 86.417 544 82.217 544 82C544 81.4477 543.552 81 543 81L531 81ZM544 83.383 539.292 86.208 544 89.105 544 83.383ZM543.966 90.259 538.326 86.788 537 87.583 535.674 86.788 530.034 90.258C530.151 90.6955 530.547 90.9999 531 91L543 91C543.453 91.0001 543.849 90.6961 543.966 90.259ZM530 89.105 534.708 86.208 530 83.383 530 89.105Z" fill="#FF5656"/></g></svg>