<svg width="16" height="16" xmlns="http://www.w3.org/2000/svg" xmlns:xlink="http://www.w3.org/1999/xlink" xml:space="preserve" overflow="hidden"><defs><clipPath id="clip0"><rect x="181" y="628" width="16" height="16"/></clipPath></defs><g clip-path="url(#clip0)" transform="translate(-181 -628)"><path d="M197 636.049C197 631.603 193.418 627.999 189 627.999 184.58 628 180.998 631.603 180.998 636.05 180.998 640.067 183.924 643.397 187.748 644.001L187.748 638.376 185.718 638.376 185.718 636.05 187.75 636.05 187.75 634.275C187.75 632.258 188.945 631.144 190.772 631.144 191.648 631.144 192.563 631.301 192.563 631.301L192.563 633.281 191.554 633.281C190.561 633.281 190.251 633.902 190.251 634.539L190.251 636.049 192.469 636.049 192.115 638.375 190.25 638.375 190.25 644C194.074 643.396 197 640.066 197 636.049Z" fill="#FF5656"/></g></svg>