<svg width="16" height="16" xmlns="http://www.w3.org/2000/svg" xmlns:xlink="http://www.w3.org/1999/xlink" xml:space="preserve" overflow="hidden"><defs><clipPath id="clip0"><rect x="476" y="78" width="16" height="16"/></clipPath></defs><g clip-path="url(#clip0)" transform="translate(-476 -78)"><path d="M484 94C484 94 490 88.314 490 84 490 80.6863 487.314 78 484 78 480.686 78 478 80.6863 478 84 478 88.314 484 94 484 94ZM484 87C482.343 87 481 85.6569 481 84 481 82.3431 482.343 81 484 81 485.657 81 487 82.3431 487 84 487 85.6569 485.657 87 484 87Z" fill="#FF5656"/></g></svg>