<svg width="52" height="52" xmlns="http://www.w3.org/2000/svg" xmlns:xlink="http://www.w3.org/1999/xlink" xml:space="preserve" overflow="hidden"><defs><clipPath id="clip0"><rect x="506" y="597" width="52" height="52"/></clipPath></defs><g clip-path="url(#clip0)" transform="translate(-506 -597)"><path d="M541.75 616.5C541.75 621.885 537.385 626.25 532 626.25 526.615 626.25 522.25 621.885 522.25 616.5 522.25 611.115 526.615 606.75 532 606.75 537.385 606.75 541.75 611.115 541.75 616.5Z" fill="#FF5656"/><path d="M506 623C506 608.641 517.641 597 532 597 546.359 597 558 608.641 558 623 558 637.359 546.359 649 532 649 517.641 649 506 637.359 506 623ZM532 600.25C519.436 600.251 509.251 610.437 509.251 623.001 509.251 628.163 511.007 633.171 514.229 637.203 516.536 633.484 521.616 629.5 532 629.5 542.384 629.5 547.46 633.481 549.771 637.203 557.615 627.387 556.017 613.072 546.201 605.228 542.169 602.006 537.161 600.25 532 600.25Z" fill="#FF5656" fill-rule="evenodd"/></g></svg>