<svg width="16" height="16" xmlns="http://www.w3.org/2000/svg" xmlns:xlink="http://www.w3.org/1999/xlink" xml:space="preserve" overflow="hidden"><defs><clipPath id="clip0"><rect x="436" y="77" width="16" height="16"/></clipPath></defs><g clip-path="url(#clip0)" transform="translate(-436 -77)"><path d="M437.885 77.511C438.567 76.83 439.672 76.8309 440.353 77.5129 440.403 77.5636 440.451 77.6174 440.495 77.674L442.29 79.98C442.619 80.403 442.735 80.954 442.605 81.474L442.058 83.664C442 83.8947 442.068 84.1387 442.236 84.307L444.693 86.764C444.862 86.9323 445.106 86.9999 445.337 86.942L447.526 86.395C448.046 86.265 448.597 86.3811 449.02 86.71L451.326 88.504C452.155 89.149 452.231 90.374 451.489 91.115L450.455 92.149C449.715 92.889 448.609 93.214 447.578 92.851 444.939 91.9225 442.543 90.4118 440.568 88.431 438.587 86.456 437.077 84.0605 436.148 81.422 435.786 80.392 436.111 79.285 436.851 78.545L437.885 77.511Z" fill="#FF5656" fill-rule="evenodd"/></g></svg>